<?xml version="1.0" encoding="UTF-8" standalone="no"?>
<!-- Created with Inkscape (http://www.inkscape.org/) -->
<svg
   xmlns:dc="http://purl.org/dc/elements/1.1/"
   xmlns:cc="http://creativecommons.org/ns#"
   xmlns:rdf="http://www.w3.org/1999/02/22-rdf-syntax-ns#"
   xmlns:svg="http://www.w3.org/2000/svg"
   xmlns="http://www.w3.org/2000/svg"
   xmlns:sodipodi="http://sodipodi.sourceforge.net/DTD/sodipodi-0.dtd"
   xmlns:inkscape="http://www.inkscape.org/namespaces/inkscape"
   version="1.0"
   width="1052.3622"
   height="744.09448"
   id="svg18380"
   sodipodi:version="0.32"
   inkscape:version="0.46"
   sodipodi:docname="ReactOS Crew-.svg"
   inkscape:output_extension="org.inkscape.output.svg.inkscape">
  <metadata
     id="metadata44">
    <rdf:RDF>
      <cc:Work
         rdf:about="">
        <dc:format>image/svg+xml</dc:format>
        <dc:type
           rdf:resource="http://purl.org/dc/dcmitype/StillImage" />
      </cc:Work>
    </rdf:RDF>
  </metadata>
  <sodipodi:namedview
     inkscape:window-height="718"
     inkscape:window-width="1024"
     inkscape:pageshadow="2"
     inkscape:pageopacity="0.0"
     guidetolerance="10.0"
     gridtolerance="10.0"
     objecttolerance="10.0"
     borderopacity="1.0"
     bordercolor="#666666"
     pagecolor="#ffffff"
     id="base"
     showgrid="false"
     inkscape:zoom="1.4621053"
     inkscape:cx="465.01255"
     inkscape:cy="501.705"
     inkscape:window-x="-8"
     inkscape:window-y="-8"
     inkscape:current-layer="svg18380" />
  <defs
     id="defs18382" />
  <g
     transform="translate(-23.996735,-375.51914)"
     id="layer1">
    <g
       transform="translate(260.43304,141.11991)"
       id="g18716">
      <polygon
         points="43.8,491.5 299.8,48.2 555.8,491.5 43.8,491.5 "
         transform="matrix(-0.8920388,0,0,-0.8920388,557.17799,839.05934)"
         id="polygon7230"
         style="fill:#000000;fill-opacity:1" />
      <polygon
         points="43.8,491.5 299.8,48.2 555.8,491.5 43.8,491.5 "
         transform="matrix(-1.0137038,0,0,-1.0137038,593.65319,879.99444)"
         id="polygon7232"
         style="fill:#ffffff;fill-opacity:1;stroke:#000000;stroke-width:12.31101322;stroke-linejoin:round;stroke-miterlimit:4;stroke-dasharray:none;stroke-opacity:1" />
      <polygon
         points="43.8,491.5 299.8,48.2 555.8,491.5 43.8,491.5 "
         transform="matrix(0.8920388,0,0,-0.8920388,22.311526,839.05934)"
         id="polygon7234"
         style="fill:#000000;fill-opacity:1" />
      <path
         style="fill:#ffffff;fill-opacity:1;stroke:none;stroke-width:1px;stroke-linecap:butt;stroke-linejoin:miter;stroke-opacity:1;"
         d="M 219.01973,457.61931 L 210.71352,436.81912 L 212.98432,436.81912 C 214.09933,436.81914 215.07514,436.40085 215.91174,435.56425 C 216.70939,434.76782 217.10822,433.79202 217.10825,432.63683 L 217.10825,411.83664 C 217.10822,410.68153 216.70939,409.70572 215.91174,408.90922 C 215.07514,408.07148 214.09933,407.65258 212.98432,407.65253 L 192.18596,407.65253 L 192.18596,457.61931 L 200.49217,457.61931 L 200.49217,436.81912 L 202.88335,436.81912 L 210.71352,457.61931 L 219.01973,457.61931 z M 208.80021,428.51291 L 200.49217,428.51291 L 200.49217,416.02076 L 208.80021,416.02076 L 208.80021,428.51291 z M 245.47413,453.4352 L 245.47413,440.94305 L 237.16609,440.94305 L 237.16609,449.25108 L 228.85805,449.25108 L 228.85805,436.28106 L 242.66526,436.28106 L 242.66526,428.99078 L 228.85805,428.99078 L 228.85805,416.02076 L 237.16609,416.02076 L 237.16609,424.3288 L 245.47413,424.3288 L 245.47413,411.77645 C 245.4741,410.70159 245.07527,409.72579 244.27763,408.84903 C 243.40211,408.05141 242.42631,407.65258 241.35021,407.65253 L 224.73413,407.65253 C 223.57897,407.65258 222.60316,408.05141 221.80671,408.84903 C 220.97013,409.68566 220.55184,410.66147 220.55184,411.77645 L 220.55184,453.4352 C 220.55184,454.59036 220.97013,455.58623 221.80671,456.42281 C 222.60316,457.22048 223.57897,457.61931 224.73413,457.61931 L 241.35021,457.61931 C 242.42631,457.61931 243.40211,457.22048 244.27763,456.42281 C 245.07527,455.5461 245.4741,454.55024 245.47413,453.4352 L 245.47413,453.4352 z M 273.9002,457.67768 L 273.9002,407.59416 L 265.47178,407.59416 L 256.208,407.59416 L 248.85753,444.11123 L 248.85753,457.67768 L 257.16375,457.67768 L 257.16375,452.41926 L 266.00985,452.41926 L 266.00985,457.67768 L 273.9002,457.67768 z M 265.47178,444.11123 L 257.16375,444.11123 L 262.72311,413.9287 L 265.47178,413.9287 L 265.47178,444.11123 z M 302.2059,453.4352 L 302.2059,440.94305 L 293.89786,440.94305 L 293.89786,449.25108 L 285.58982,449.25108 L 285.58982,416.02076 L 293.89786,416.02076 L 293.89786,424.3288 L 302.2059,424.3288 L 302.2059,411.77645 C 302.20587,410.70159 301.80703,409.72579 301.00939,408.84903 C 300.13388,408.05141 299.15807,407.65258 298.08197,407.65253 L 281.4659,407.65253 C 280.31073,407.65258 279.33493,408.05141 278.53848,408.84903 C 277.70189,409.68566 277.2836,410.66147 277.28361,411.77645 L 277.28361,453.4352 C 277.2836,454.59036 277.70189,455.58623 278.53848,456.42281 C 279.33493,457.22048 280.31073,457.61931 281.4659,457.61931 L 298.08197,457.61931 C 299.15807,457.61931 300.13388,457.22048 301.00939,456.42281 C 301.80703,455.5461 302.20587,454.55024 302.2059,453.4352 L 302.2059,453.4352 z M 326.20892,457.49893 L 326.26728,415.90038 L 332.18414,415.78182 L 332.18414,407.53397 L 305.64949,407.53397 L 305.64949,423.19248 L 313.9557,423.19248 L 313.9557,415.90038 L 317.90088,415.90038 L 317.90088,457.49893 L 326.20892,457.49893 z M 358.93765,452.59801 L 358.93765,412.55345 C 358.93763,411.16001 358.45915,409.98479 357.50221,409.02778 C 356.54645,408.03196 355.37122,407.53402 353.97654,407.53397 L 339.03484,407.53397 C 337.64013,407.53402 336.46491,408.03196 335.50917,409.02778 C 334.5133,410.0237 334.01536,411.19892 334.01536,412.55345 L 334.01536,452.59801 C 334.01536,453.95259 334.5133,455.12781 335.50917,456.12368 C 336.02716,456.68181 336.57495,457.06058 337.15254,457.26 C 337.73011,457.45941 338.35755,457.55912 339.03484,457.55912 L 346.50569,457.55912 L 346.50569,457.79806 L 354.81373,457.79806 L 354.81373,457.49893 C 355.96887,457.33964 356.96474,456.78152 357.80134,455.82456 C 358.55886,454.90894 358.93763,453.83343 358.93765,452.59801 L 358.93765,452.59801 z M 350.62962,449.25108 L 342.32158,449.25108 L 342.32158,415.90038 L 350.62962,415.90038 L 350.62962,449.25108 z M 387.30354,457.49893 L 387.30354,449.1307 L 372.30165,415.90038 L 378.99551,415.90038 L 378.99551,424.20842 L 387.30354,424.20842 L 387.30354,407.53397 L 362.38126,407.53397 L 362.38126,415.90038 L 377.74064,449.1307 L 370.68747,449.1307 L 370.68747,440.82449 L 362.38126,440.82449 L 362.38126,457.49893 L 387.30354,457.49893 z"
         id="text7248" />
      <path
         style="fill:#ffffff;fill-opacity:1;stroke:none;stroke-width:1px;stroke-linecap:butt;stroke-linejoin:miter;stroke-opacity:1;"
         d="M 390.22888,412.96864 C 390.22888,411.46887 390.76106,410.18815 391.82542,409.12648 C 392.88977,408.06482 394.17184,407.53398 395.67162,407.53397 C 397.17138,407.53398 398.45211,408.06482 399.51378,409.12648 C 400.57544,410.18815 401.10628,411.46887 401.10629,412.96864 C 401.10628,414.46842 400.57544,415.75049 399.51378,416.81484 C 398.45211,417.8792 397.17138,418.41138 395.67162,418.41138 C 394.17184,418.41138 392.88977,417.8792 391.82542,416.81484 C 390.76106,415.75049 390.22888,414.46842 390.22888,412.96864 L 390.22888,412.96864 z M 400.21932,412.96864 C 400.21931,411.71077 399.77583,410.63835 398.88888,409.75138 C 398.0019,408.86443 396.92948,408.42095 395.67162,408.42094 C 394.41373,408.42095 393.33997,408.86443 392.45032,409.75138 C 391.56067,410.63835 391.11584,411.71077 391.11584,412.96864 C 391.11584,414.22652 391.56067,415.30029 392.45032,416.18994 C 393.33997,417.07959 394.41373,417.52442 395.67162,417.52441 C 396.92948,417.52442 398.0019,417.07959 398.88888,416.18994 C 399.77583,415.30029 400.21931,414.22652 400.21932,412.96864 L 400.21932,412.96864 z M 397.36491,416.25041 L 395.66355,413.37181 L 394.69596,413.37181 L 394.69596,416.25041 L 393.73642,416.25041 L 393.73642,409.5498 L 395.45391,409.5498 C 397.06656,409.54981 397.87289,410.16799 397.8729,411.40436 C 397.87289,412.26445 397.44016,412.87189 396.57471,413.22667 L 398.40508,416.25041 L 397.36491,416.25041 z M 394.69596,410.37226 L 394.69596,412.59773 C 394.77658,412.60849 394.98623,412.61386 395.32489,412.61386 C 395.94845,412.61386 396.36774,412.53457 396.58277,412.37599 C 396.79778,412.21742 396.90529,411.91504 396.9053,411.46887 C 396.90529,410.73243 396.4215,410.3642 395.45391,410.36419 L 395.07493,410.36419 L 394.69596,410.37226 z"
         id="text7252" />
      <g
         transform="matrix(0.7754435,0,0,-0.7754435,1.7401893,652.35608)"
         id="g7262">
        <path
           d="M 397.65625,89.03125 C 395.21048,90.311738 384.13969,97.093712 381.61115,98.593261 C 389.13676,104.65207 399.81437,113.40296 407.12549,120.71408 C 420.04088,133.62947 437.04469,156.68645 445.91551,169.97584 C 445.85849,169.13722 445.21568,151.2641 445.1308,150.4334 C 442.24243,122.16429 423.35534,98.621249 397.65625,89.03125 z M 345.59375,89.28125 C 319.99541,99.111866 300.18532,124.68 298.35481,150.88606 C 298.27538,152.02317 297.89496,153.88226 297.94796,158.27914 C 298.00254,162.80669 298.37036,168.97204 299.1395,167.91847 C 306.92567,157.25303 329.01775,126.93488 339.35558,116.59705 C 346.66779,109.28483 353.83763,104.39783 361.36664,98.343162 C 358.99261,96.93597 347.89514,90.496093 345.59375,89.28125 z M 371.375,105.875 C 362.72847,112.40926 353.99704,120.00296 345.5,128.5 C 326.41629,147.5837 311.9709,167.97738 303.65625,185.46875 C 314.5504,212.49554 341.02523,231.59375 371.9375,231.59375 C 402.38061,231.59375 428.5265,213.06435 439.71875,186.6875 C 431.50435,168.93054 416.84022,148.02771 397.3125,128.5 C 388.80379,119.99129 380.03499,112.41163 371.375,105.875 z"
           id="path7264"
           style="fill:#ffffff;fill-opacity:1;stroke:none;stroke-width:0;stroke-linecap:round;stroke-linejoin:miter;stroke-miterlimit:4;stroke-dasharray:none;stroke-opacity:1" />
        <path
           d="M 309.71875,64.21875 C 301.09,64.161971 293.80512,66.50738 288.65625,71.65625 C 278.3585,81.953987 279.3572,100.72019 288.09375,121.9375 C 289.86192,126.23162 291.97822,130.65777 294.375,135.15625 C 295.11077,132.65676 295.97295,130.20517 296.9375,127.8125 C 295.74506,125.3517 294.6326,122.90238 293.65625,120.53125 C 285.41447,100.51547 285.14891,84.507341 293.34375,76.3125 C 301.53859,68.117659 317.54672,68.414459 337.5625,76.65625 C 344.48697,79.507501 360.26594,89.356166 367.81521,93.99747 C 369.43681,92.779922 371.06933,91.589523 372.69021,90.43497 C 363.99355,84.924225 347.02909,74.42558 338.9375,71.09375 C 328.32884,66.725479 318.3475,64.275529 309.71875,64.21875 z M 383,97.71875 C 381.39526,98.770988 379.7786,99.837632 378.15625,100.96875 C 386.47495,107.39098 394.8391,114.7141 402.96875,122.84375 C 424.84442,144.71941 440.91445,168.23422 449.15625,188.25 C 457.39803,208.26579 457.66359,224.27391 449.46875,232.46875 C 441.27392,240.66358 425.29704,240.39804 405.28125,232.15625 C 405.10838,232.08507 404.9234,232.00985 404.75,231.9375 C 402.33819,233.00982 399.84154,233.94506 397.3125,234.78125 C 399.5246,235.82957 401.71956,236.83122 403.875,237.71875 C 425.09232,246.45531 443.85851,247.42274 454.15625,237.125 C 464.45398,226.82726 463.45529,208.09232 454.71875,186.875 C 445.9822,165.65769 429.35028,141.44404 406.84375,118.9375 C 399.02819,111.12194 391.0254,104.02796 383,97.71875 z"
           id="path7266"
           style="opacity:1;fill:#ffffff;fill-opacity:1;stroke:none;stroke-width:7.6803484;stroke-linecap:round;stroke-linejoin:miter;stroke-miterlimit:4;stroke-dasharray:none;stroke-opacity:1" />
        <path
           d="M 433.09375,64.21875 C 424.46975,64.270785 414.48366,66.725478 403.875,71.09375 C 382.65769,79.830294 358.47528,96.430962 335.96875,118.9375 C 313.46223,141.44403 296.8303,165.62643 288.09375,186.84375 C 279.35721,208.06107 278.35851,226.82726 288.65625,237.125 C 298.95399,247.42274 317.72018,246.42405 338.9375,237.6875 C 341.2343,236.74176 343.57712,235.69026 345.9375,234.5625 C 343.45071,233.71693 340.99654,232.76203 338.625,231.6875 C 338.27367,231.83605 337.91172,231.9812 337.5625,232.125 C 317.54673,240.36679 301.50734,240.66359 293.3125,232.46875 C 285.11765,224.2739 285.41446,208.26578 293.65625,188.25 C 301.89804,168.23421 317.96809,144.71941 339.84375,122.84375 C 361.71942,100.96808 385.26547,84.898044 405.28125,76.65625 C 425.29704,68.414461 441.27391,68.11766 449.46875,76.3125 C 457.66358,84.507339 457.39805,100.51546 449.15625,120.53125 C 448.34246,122.50761 447.43338,124.52253 446.46875,126.5625 C 447.47539,128.94387 448.34657,131.38381 449.125,133.875 C 451.24518,129.8129 453.11683,125.82786 454.71875,121.9375 C 463.45528,100.72018 464.42274,81.95399 454.125,71.65625 C 448.97613,66.507379 441.71775,64.166715 433.09375,64.21875 z"
           id="path7268"
           style="opacity:1;fill:#ffffff;fill-opacity:1;stroke:none;stroke-width:7.6803484;stroke-linecap:round;stroke-linejoin:miter;stroke-miterlimit:4;stroke-dasharray:none;stroke-opacity:1" />
      </g>
      <path
         style="fill:#ffffff;fill-opacity:1;stroke:none;stroke-width:1px;stroke-linecap:butt;stroke-linejoin:miter;stroke-opacity:1"
         d="M 265.35925,654.48389 L 265.35925,644.35607 L 258.62364,644.35607 L 258.62364,651.09169 L 251.88802,651.09169 L 251.88802,624.1507 L 258.62364,624.1507 L 258.62364,630.88632 L 265.35925,630.88632 L 265.35925,620.70969 C 265.35923,619.83827 265.03588,619.04715 264.3892,618.33633 C 263.67939,617.68967 262.88827,617.36633 262.01584,617.36628 L 248.54461,617.36628 C 247.60808,617.36633 246.81696,617.68967 246.17125,618.33633 C 245.493,619.01461 245.15388,619.80573 245.15388,620.70969 L 245.15388,654.48389 C 245.15388,655.42042 245.493,656.22781 246.17125,656.90605 C 246.81696,657.55275 247.60808,657.8761 248.54461,657.8761 L 262.01584,657.8761 C 262.88827,657.8761 263.67939,657.55275 264.3892,656.90605 C 265.03588,656.19528 265.35923,655.38789 265.35925,654.48389 L 265.35925,654.48389 z M 289.90617,657.8761 L 283.17204,641.01266 L 285.01306,641.01266 C 285.91703,641.01268 286.70815,640.67355 287.38642,639.99529 C 288.03309,639.3496 288.35644,638.55848 288.35646,637.62193 L 288.35646,620.75849 C 288.35644,619.822 288.03309,619.03088 287.38642,618.38513 C 286.70815,617.70594 285.91703,617.36633 285.01306,617.36628 L 268.1511,617.36628 L 268.1511,657.8761 L 274.88523,657.8761 L 274.88523,641.01266 L 276.82385,641.01266 L 283.17204,657.8761 L 289.90617,657.8761 z M 281.62085,634.27852 L 274.88523,634.27852 L 274.88523,624.1507 L 281.62085,624.1507 L 281.62085,634.27852 z M 311.35368,654.48389 L 311.35368,644.35607 L 304.61806,644.35607 L 304.61806,651.09169 L 297.88245,651.09169 L 297.88245,640.57643 L 309.07643,640.57643 L 309.07643,634.66595 L 297.88245,634.66595 L 297.88245,624.1507 L 304.61806,624.1507 L 304.61806,630.88632 L 311.35368,630.88632 L 311.35368,620.70969 C 311.35366,619.83827 311.03031,619.04715 310.38363,618.33633 C 309.67382,617.68967 308.8827,617.36633 308.01027,617.36628 L 294.53904,617.36628 C 293.6025,617.36633 292.81138,617.68967 292.16567,618.33633 C 291.48743,619.01461 291.14831,619.80573 291.14831,620.70969 L 291.14831,654.48389 C 291.14831,655.42042 291.48743,656.22781 292.16567,656.90605 C 292.81138,657.55275 293.6025,657.8761 294.53904,657.8761 L 308.01027,657.8761 C 308.8827,657.8761 309.67382,657.55275 310.38363,656.90605 C 311.03031,656.19528 311.35366,655.38789 311.35368,654.48389 L 311.35368,654.48389 z M 334.35089,657.7785 L 334.35089,617.27017 L 327.61527,617.27017 L 327.61527,640.04409 L 324.27186,634.13213 L 320.87966,640.04409 L 320.87966,617.27017 L 314.14552,617.27017 L 314.14552,657.7785 L 320.87966,657.7785 L 324.27186,644.25995 L 327.61527,657.7785 L 334.35089,657.7785 z"
         id="text7306" />
      <g
         transform="matrix(0.530102,0.1356524,-0.1356524,0.530102,96.192385,390.90039)"
         id="g3319">
        <path
           d="M 188.05263,212.91973 L 252.41556,189.72431 L 221.11778,182.48579 L 291.76649,165.84747 L 196.05322,180.14579 L 232.49769,190.73178 L 179.12153,209.53763"
           id="path3321"
           style="fill:#ffffff;fill-opacity:1;fill-rule:evenodd;stroke:none;stroke-width:1px;stroke-linecap:butt;stroke-linejoin:miter;stroke-opacity:1" />
        <path
           d="M 215.1221,211.65068 L 183.9593,210.90852 L 187.05939,200.23712 L 152.11807,225.99066"
           id="path3323"
           style="fill:#ffffff;fill-opacity:1;fill-rule:evenodd;stroke:none;stroke-width:1px;stroke-linecap:butt;stroke-linejoin:miter;stroke-opacity:1" />
      </g>
      <g
         transform="matrix(0.5409104,-7.0342377e-2,7.0342377e-2,0.5409104,72.111064,462.51288)"
         id="g3325">
        <path
           d="M 186.56515,214.59938 L 254.38802,190.51856 L 217.40239,181.38759 L 272.1051,170.35745 L 194.49217,179.80796 L 232.49769,190.73178 L 179.12153,209.53763"
           id="path3327"
           style="fill:#ffffff;fill-opacity:1;fill-rule:evenodd;stroke:none;stroke-width:1px;stroke-linecap:butt;stroke-linejoin:miter;stroke-opacity:1" />
        <path
           d="M 215.1221,211.65068 L 183.9593,210.90852 L 187.05939,200.23712 L 152.11807,225.99066"
           id="path3329"
           style="fill:#ffffff;fill-opacity:1;fill-rule:evenodd;stroke:none;stroke-width:1px;stroke-linecap:butt;stroke-linejoin:miter;stroke-opacity:1" />
      </g>
      <g
         transform="matrix(0.6021714,0,0,0.6021714,55.320594,409.44172)"
         id="g14658">
        <path
           d="M 154.36939,148.94777 L 239.22771,147.06573 L 216.06626,135.24784 L 273.62447,138.27063 L 182.33033,125.54164 L 217.72858,142.92025 L 148.59602,144.00572"
           id="path14660"
           style="fill:#ffffff;fill-opacity:1;fill-rule:evenodd;stroke:none;stroke-width:1px;stroke-linecap:butt;stroke-linejoin:miter;stroke-opacity:1" />
        <path
           d="M 180.37995,153.4026 L 154.5912,145.49601 L 164.92533,140.1158 L 121.19351,146.99087"
           id="path14662"
           style="fill:#ffffff;fill-opacity:1;fill-rule:evenodd;stroke:none;stroke-width:1px;stroke-linecap:butt;stroke-linejoin:miter;stroke-opacity:1" />
      </g>
      <g
         transform="matrix(0.648809,0.1570557,-0.1570557,0.648809,37.170428,304.74978)"
         id="g18527">
        <path
           d="M 154.36939,148.94777 L 239.22771,147.06573 L 216.06626,135.24784 L 273.62447,138.27063 L 182.33033,125.54164 L 217.72858,142.92025 L 148.59602,144.00572"
           id="path18529"
           style="fill:#ffffff;fill-opacity:1;fill-rule:evenodd;stroke:none;stroke-width:1px;stroke-linecap:butt;stroke-linejoin:miter;stroke-opacity:1" />
        <path
           d="M 180.37995,153.4026 L 154.5912,145.49601 L 164.92533,140.1158 L 121.19351,146.99087"
           id="path18531"
           style="fill:#ffffff;fill-opacity:1;fill-rule:evenodd;stroke:none;stroke-width:1px;stroke-linecap:butt;stroke-linejoin:miter;stroke-opacity:1" />
      </g>
      <g
         transform="matrix(-0.530102,0.1356524,0.1356524,0.530102,483.29714,390.90039)"
         id="g18533">
        <path
           d="M 188.05263,212.91973 L 252.41556,189.72431 L 221.11778,182.48579 L 291.76649,165.84747 L 196.05322,180.14579 L 232.49769,190.73178 L 179.12153,209.53763"
           id="path18535"
           style="fill:#ffffff;fill-opacity:1;fill-rule:evenodd;stroke:none;stroke-width:1px;stroke-linecap:butt;stroke-linejoin:miter;stroke-opacity:1" />
        <path
           d="M 215.1221,211.65068 L 183.9593,210.90852 L 187.05939,200.23712 L 152.11807,225.99066"
           id="path18537"
           style="fill:#ffffff;fill-opacity:1;fill-rule:evenodd;stroke:none;stroke-width:1px;stroke-linecap:butt;stroke-linejoin:miter;stroke-opacity:1" />
      </g>
      <g
         transform="matrix(-0.5409104,-7.0342377e-2,-7.0342377e-2,0.5409104,507.37846,462.51288)"
         id="g18539">
        <path
           d="M 186.56515,214.59938 L 254.38802,190.51856 L 217.40239,181.38759 L 272.1051,170.35745 L 194.49217,179.80796 L 232.49769,190.73178 L 179.12153,209.53763"
           id="path18541"
           style="fill:#ffffff;fill-opacity:1;fill-rule:evenodd;stroke:none;stroke-width:1px;stroke-linecap:butt;stroke-linejoin:miter;stroke-opacity:1" />
        <path
           d="M 215.1221,211.65068 L 183.9593,210.90852 L 187.05939,200.23712 L 152.11807,225.99066"
           id="path18543"
           style="fill:#ffffff;fill-opacity:1;fill-rule:evenodd;stroke:none;stroke-width:1px;stroke-linecap:butt;stroke-linejoin:miter;stroke-opacity:1" />
      </g>
      <g
         transform="matrix(-0.6021714,0,0,0.6021714,524.16893,409.44172)"
         id="g18545">
        <path
           d="M 154.36939,148.94777 L 239.22771,147.06573 L 216.06626,135.24784 L 273.62447,138.27063 L 182.33033,125.54164 L 217.72858,142.92025 L 148.59602,144.00572"
           id="path18547"
           style="fill:#ffffff;fill-opacity:1;fill-rule:evenodd;stroke:none;stroke-width:1px;stroke-linecap:butt;stroke-linejoin:miter;stroke-opacity:1" />
        <path
           d="M 180.37995,153.4026 L 154.5912,145.49601 L 164.92533,140.1158 L 121.19351,146.99087"
           id="path18549"
           style="fill:#ffffff;fill-opacity:1;fill-rule:evenodd;stroke:none;stroke-width:1px;stroke-linecap:butt;stroke-linejoin:miter;stroke-opacity:1" />
      </g>
      <g
         transform="matrix(-0.648809,0.1570557,0.1570557,0.648809,542.31909,304.74978)"
         id="g18670">
        <path
           d="M 154.36939,148.94777 L 239.22771,147.06573 L 216.06626,135.24784 L 273.62447,138.27063 L 182.33033,125.54164 L 217.72858,142.92025 L 148.59602,144.00572"
           id="path18672"
           style="fill:#ffffff;fill-opacity:1;fill-rule:evenodd;stroke:none;stroke-width:1px;stroke-linecap:butt;stroke-linejoin:miter;stroke-opacity:1" />
        <path
           d="M 180.37995,153.4026 L 154.5912,145.49601 L 164.92533,140.1158 L 121.19351,146.99087"
           id="path18674"
           style="fill:#ffffff;fill-opacity:1;fill-rule:evenodd;stroke:none;stroke-width:1px;stroke-linecap:butt;stroke-linejoin:miter;stroke-opacity:1" />
      </g>
    </g>
  </g>
</svg>
